<?xml version="1.0" standalone="no"?><!DOCTYPE svg PUBLIC "-//W3C//DTD SVG 1.1//EN" "http://www.w3.org/Graphics/SVG/1.1/DTD/svg11.dtd"><svg xmlns:xlink="http://www.w3.org/1999/xlink" version="1.1" style="font-family:open sans;font-size:12px;" xmlns="http://www.w3.org/2000/svg" width="1040" height="410"><desc>Created with Highcharts 4.1.5</desc><defs><clipPath id="highcharts-63"><rect x="0" y="0" width="769" height="194"></rect></clipPath></defs><rect x="0" y="0" width="1040" height="410" strokeWidth="0" fill="#FFFFFF" class=" highcharts-background"></rect><g class="highcharts-grid" ></g><g class="highcharts-grid" ></g><g class="highcharts-grid" ><path fill="none" d="M 121 331.5 L 890 331.5" stroke="#D8D8D8" stroke-width="1"  opacity="1"></path><path fill="none" d="M 121 266.5 L 890 266.5" stroke="#D8D8D8" stroke-width="1"  opacity="1"></path><path fill="none" d="M 121 202.5 L 890 202.5" stroke="#D8D8D8" stroke-width="1"  opacity="1"></path><path fill="none" d="M 121 136.5 L 890 136.5" stroke="#D8D8D8" stroke-width="1"  opacity="1"></path></g><g class="highcharts-grid" ><path fill="none" d="M 121 331.5 L 890 331.5" stroke="#D8D8D8" stroke-width="1"  opacity="1"></path><path fill="none" d="M 121 266.5 L 890 266.5" stroke="#D8D8D8" stroke-width="1"  opacity="1"></path><path fill="none" d="M 121 202.5 L 890 202.5" stroke="#D8D8D8" stroke-width="1"  opacity="1"></path><path fill="none" d="M 121 137.5 L 890 137.5" stroke="#D8D8D8" stroke-width="1"  opacity="1"></path></g><g class="highcharts-axis" ><path fill="none" d="M 179.5 331 L 179.5 341" stroke="#C0D0E0" stroke-width="1" opacity="1"></path><path fill="none" d="M 238.5 331 L 238.5 341" stroke="#C0D0E0" stroke-width="1" opacity="1"></path><path fill="none" d="M 297.5 331 L 297.5 341" stroke="#C0D0E0" stroke-width="1" opacity="1"></path><path fill="none" d="M 357.5 331 L 357.5 341" stroke="#C0D0E0" stroke-width="1" opacity="1"></path><path fill="none" d="M 416.5 331 L 416.5 341" stroke="#C0D0E0" stroke-width="1" opacity="1"></path><path fill="none" d="M 475.5 331 L 475.5 341" stroke="#C0D0E0" stroke-width="1" opacity="1"></path><path fill="none" d="M 534.5 331 L 534.5 341" stroke="#C0D0E0" stroke-width="1" opacity="1"></path><path fill="none" d="M 593.5 331 L 593.5 341" stroke="#C0D0E0" stroke-width="1" opacity="1"></path><path fill="none" d="M 652.5 331 L 652.5 341" stroke="#C0D0E0" stroke-width="1" opacity="1"></path><path fill="none" d="M 712.5 331 L 712.5 341" stroke="#C0D0E0" stroke-width="1" opacity="1"></path><path fill="none" d="M 771.5 331 L 771.5 341" stroke="#C0D0E0" stroke-width="1" opacity="1"></path><path fill="none" d="M 830.5 331 L 830.5 341" stroke="#C0D0E0" stroke-width="1" opacity="1"></path><path fill="none" d="M 890.5 331 L 890.5 341" stroke="#C0D0E0" stroke-width="1" opacity="1"></path><path fill="none" d="M 120.5 331 L 120.5 341" stroke="#C0D0E0" stroke-width="1" opacity="1"></path><path fill="none" d="M 121 331.5 L 890 331.5" stroke="#C0D0E0" stroke-width="1"  visibility="visible"></path></g><g class="highcharts-axis" ><path fill="none" d="M 179.5 137 L 179.5 127" stroke="#C0D0E0" stroke-width="1" opacity="1"></path><path fill="none" d="M 238.5 137 L 238.5 127" stroke="#C0D0E0" stroke-width="1" opacity="1"></path><path fill="none" d="M 297.5 137 L 297.5 127" stroke="#C0D0E0" stroke-width="1" opacity="1"></path><path fill="none" d="M 357.5 137 L 357.5 127" stroke="#C0D0E0" stroke-width="1" opacity="1"></path><path fill="none" d="M 416.5 137 L 416.5 127" stroke="#C0D0E0" stroke-width="1" opacity="1"></path><path fill="none" d="M 475.5 137 L 475.5 127" stroke="#C0D0E0" stroke-width="1" opacity="1"></path><path fill="none" d="M 534.5 137 L 534.5 127" stroke="#C0D0E0" stroke-width="1" opacity="1"></path><path fill="none" d="M 593.5 137 L 593.5 127" stroke="#C0D0E0" stroke-width="1" opacity="1"></path><path fill="none" d="M 652.5 137 L 652.5 127" stroke="#C0D0E0" stroke-width="1" opacity="1"></path><path fill="none" d="M 712.5 137 L 712.5 127" stroke="#C0D0E0" stroke-width="1" opacity="1"></path><path fill="none" d="M 771.5 137 L 771.5 127" stroke="#C0D0E0" stroke-width="1" opacity="1"></path><path fill="none" d="M 830.5 137 L 830.5 127" stroke="#C0D0E0" stroke-width="1" opacity="1"></path><path fill="none" d="M 890.5 137 L 890.5 127" stroke="#C0D0E0" stroke-width="1" opacity="1"></path><path fill="none" d="M 120.5 137 L 120.5 127" stroke="#C0D0E0" stroke-width="1" opacity="1"></path><path fill="none" d="M 121 136.5 L 890 136.5" stroke="#C0D0E0" stroke-width="1"  visibility="visible"></path></g><g class="highcharts-axis" ><text x="1013.1833343505859"  text-anchor="middle" transform="translate(0,0) rotate(90 1013.1833343505859 234)" class=" highcharts-yaxis-title" style="color:#000000;fill:#000000;" visibility="visible" y="234"><tspan>Uranium US power plants</tspan></text></g><g class="highcharts-axis" ><text x="27.01667022705078"  text-anchor="middle" transform="translate(0,0) rotate(270 27.01667022705078 234)" class=" highcharts-yaxis-title" style="color:#ba0f27;fill:#ba0f27;" visibility="visible" y="234"><tspan>Math doctorates</tspan></text></g><g class="highcharts-series-group" ><g class="highcharts-series" visibility="visible"  transform="translate(121,137) scale(1 1)" clip-path="url(#highcharts-63)"><path fill="none" d="M 29.576923076923077 109.61000000000001 C 29.576923076923077 109.61000000000001 65.06923076923076 110.06266666666666 88.73076923076923 110.25666666666665 C 112.3923076923077 110.45066666666665 124.22307692307693 110.25666666666665 147.8846153846154 110.58000000000001 C 171.54615384615386 110.90333333333338 183.37692307692305 127.7166666666667 207.03846153846152 134.83 C 230.7 141.94333333333333 242.53076923076924 146.14666666666668 266.1923076923077 146.14666666666668 C 289.8538461538462 146.14666666666668 301.6846153846154 143.56 325.34615384615387 143.56 C 349.0076923076923 143.56 360.8384615384615 143.88333333333333 384.5 150.35 C 408.1615384615385 156.81666666666666 419.9923076923077 175.89333333333332 443.6538461538462 175.89333333333332 C 467.3153846153847 175.89333333333332 479.1461538461539 149.12133333333333 502.8076923076923 136.76999999999998 C 526.4692307692308 124.41866666666664 538.3 126.94066666666664 561.9615384615385 114.13666666666666 C 585.623076923077 101.33266666666665 597.4538461538461 83.42000000000003 621.1153846153846 72.75 C 644.776923076923 62.08000000000003 656.6076923076923 63.05000000000001 680.2692307692308 60.78666666666666 C 703.9307692307692 58.52333333333331 739.4230769230769 58.52333333333331 739.4230769230769 58.52333333333331" stroke="#000000" stroke-width="2"  stroke-linejoin="round" stroke-linecap="round"></path></g><g class="highcharts-markers" visibility="visible"  transform="translate(121,137) scale(1 1)" clip-path="none"><path fill="#000000" d="M 739 54.52333333333331 C 744.328 54.52333333333331 744.328 62.52333333333331 739 62.52333333333331 C 733.672 62.52333333333331 733.672 54.52333333333331 739 54.52333333333331 Z"></path><path fill="#000000" d="M 680 56.78666666666666 C 685.328 56.78666666666666 685.328 64.78666666666666 680 64.78666666666666 C 674.672 64.78666666666666 674.672 56.78666666666666 680 56.78666666666666 Z"></path><path fill="#000000" d="M 621 68.75 C 626.328 68.75 626.328 76.75 621 76.75 C 615.672 76.75 615.672 68.75 621 68.75 Z"></path><path fill="#000000" d="M 561 110.13666666666666 C 566.328 110.13666666666666 566.328 118.13666666666666 561 118.13666666666666 C 555.672 118.13666666666666 555.672 110.13666666666666 561 110.13666666666666 Z"></path><path fill="#000000" d="M 502 132.76999999999998 C 507.328 132.76999999999998 507.328 140.76999999999998 502 140.76999999999998 C 496.672 140.76999999999998 496.672 132.76999999999998 502 132.76999999999998 Z"></path><path fill="#000000" d="M 443 171.89333333333332 C 448.328 171.89333333333332 448.328 179.89333333333332 443 179.89333333333332 C 437.672 179.89333333333332 437.672 171.89333333333332 443 171.89333333333332 Z"></path><path fill="#000000" d="M 384 146.35 C 389.328 146.35 389.328 154.35 384 154.35 C 378.672 154.35 378.672 146.35 384 146.35 Z"></path><path fill="#000000" d="M 325 139.56 C 330.328 139.56 330.328 147.56 325 147.56 C 319.672 147.56 319.672 139.56 325 139.56 Z"></path><path fill="#000000" d="M 266 142.14666666666668 C 271.328 142.14666666666668 271.328 150.14666666666668 266 150.14666666666668 C 260.672 150.14666666666668 260.672 142.14666666666668 266 142.14666666666668 Z"></path><path fill="#000000" d="M 207 130.83 C 212.328 130.83 212.328 138.83 207 138.83 C 201.672 138.83 201.672 130.83 207 130.83 Z"></path><path fill="#000000" d="M 147 106.58000000000001 C 152.328 106.58000000000001 152.328 114.58000000000001 147 114.58000000000001 C 141.672 114.58000000000001 141.672 106.58000000000001 147 106.58000000000001 Z"></path><path fill="#000000" d="M 88 106.25666666666665 C 93.328 106.25666666666665 93.328 114.25666666666665 88 114.25666666666665 C 82.672 114.25666666666665 82.672 106.25666666666665 88 106.25666666666665 Z"></path><path fill="#000000" d="M 29 105.61000000000001 C 34.328 105.61000000000001 34.328 113.61000000000001 29 113.61000000000001 C 23.672 113.61000000000001 23.672 105.61000000000001 29 105.61000000000001 Z"></path></g><g class="highcharts-series" visibility="visible"  transform="translate(121,137) scale(1 1)" clip-path="url(#highcharts-63)"><path fill="none" d="M 29.576923076923077 141.94333333333333 C 29.576923076923077 141.94333333333333 65.06923076923076 141.94333333333333 88.73076923076923 141.78166666666667 C 112.3923076923077 141.62 124.22307692307693 133.05166666666668 147.8846153846154 133.05166666666668 C 171.54615384615386 133.05166666666668 183.37692307692305 144.14200000000002 207.03846153846152 148.24833333333333 C 230.7 152.35466666666667 242.53076923076924 151.223 266.1923076923077 153.58333333333334 C 289.8538461538462 155.9436666666667 301.6846153846154 155.81433333333334 325.34615384615387 160.05 C 349.0076923076923 164.28566666666669 360.8384615384615 174.76166666666666 384.5 174.76166666666666 C 408.1615384615385 174.76166666666666 419.9923076923077 167.87466666666668 443.6538461538462 162.79833333333335 C 467.3153846153847 157.722 479.1461538461539 156.23466666666664 502.8076923076923 149.38 C 526.4692307692308 142.52533333333332 538.3 136.57600000000002 561.9615384615385 128.525 C 585.623076923077 120.474 597.4538461538461 115.20366666666669 621.1153846153846 109.12500000000001 C 644.776923076923 103.04633333333337 656.6076923076923 99.10166666666667 680.2692307692308 98.13166666666667 C 703.9307692307692 97.16166666666668 739.4230769230769 97.16166666666668 739.4230769230769 97.16166666666668" stroke="#ba0f27" stroke-width="2"  stroke-linejoin="round" stroke-linecap="round"></path></g><g class="highcharts-markers" visibility="visible"  transform="translate(121,137) scale(1 1)" clip-path="none"><path fill="#ba0f27" d="M 739 93.16166666666668 L 743 97.16166666666668 739 101.16166666666668 735 97.16166666666668 Z"></path><path fill="#ba0f27" d="M 680 94.13166666666667 L 684 98.13166666666667 680 102.13166666666667 676 98.13166666666667 Z"></path><path fill="#ba0f27" d="M 621 105.12500000000001 L 625 109.12500000000001 621 113.12500000000001 617 109.12500000000001 Z"></path><path fill="#ba0f27" d="M 561 124.525 L 565 128.525 561 132.525 557 128.525 Z"></path><path fill="#ba0f27" d="M 502 145.38 L 506 149.38 502 153.38 498 149.38 Z"></path><path fill="#ba0f27" d="M 443 158.79833333333335 L 447 162.79833333333335 443 166.79833333333335 439 162.79833333333335 Z"></path><path fill="#ba0f27" d="M 384 170.76166666666666 L 388 174.76166666666666 384 178.76166666666666 380 174.76166666666666 Z"></path><path fill="#ba0f27" d="M 325 156.05 L 329 160.05 325 164.05 321 160.05 Z"></path><path fill="#ba0f27" d="M 266 149.58333333333334 L 270 153.58333333333334 266 157.58333333333334 262 153.58333333333334 Z"></path><path fill="#ba0f27" d="M 207 144.24833333333333 L 211 148.24833333333333 207 152.24833333333333 203 148.24833333333333 Z"></path><path fill="#ba0f27" d="M 147 129.05166666666668 L 151 133.05166666666668 147 137.05166666666668 143 133.05166666666668 Z"></path><path fill="#ba0f27" d="M 88 137.78166666666667 L 92 141.78166666666667 88 145.78166666666667 84 141.78166666666667 Z"></path><path fill="#ba0f27" d="M 29 137.94333333333333 L 33 141.94333333333333 29 145.94333333333333 25 141.94333333333333 Z"></path></g></g><text x="520" text-anchor="middle" class="highcharts-title"  style="color:#777;font-size:18px;fill:#777;width:976px;" y="24"><tspan style="fill:#ba0f27;font-size:24px;font-weight:bold;font-family: 'lora'">Math doctorates awarded</tspan><tspan style="font-family: 'lora'" x="520" dy="21"> correlates with </tspan><tspan style="fill:#000000;font-size:24px;font-weight:bold;font-family: 'lora'" x="520" dy="29">Uranium stored at US nuclear power plants</tspan></text><g class="highcharts-legend"  transform="translate(359,367)"><g ><g><g class="highcharts-legend-item"  transform="translate(8,3)"><path fill="none" d="M 0 11 L 16 11" stroke="#000000" stroke-width="2"></path><path fill="#000000" d="M 8 7 C 13.328 7 13.328 15 8 15 C 2.6719999999999997 15 2.6719999999999997 7 8 7 Z"></path><text x="21" style="color:#333333;font-size:12px;font-weight:bold;cursor:pointer;fill:#333333;" text-anchor="start"  y="15"><tspan>Uranium US power plants</tspan></text></g><g class="highcharts-legend-item"  transform="translate(197.76666259765625,3)"><path fill="none" d="M 0 11 L 16 11" stroke="#ba0f27" stroke-width="2"></path><path fill="#ba0f27" d="M 8 7 L 12 11 8 15 4 11 Z"></path><text x="21" y="15" style="color:#333333;font-size:12px;font-weight:bold;cursor:pointer;fill:#333333;" text-anchor="start" ><tspan>Math doctorates</tspan></text></g></g></g></g><g class="highcharts-axis-labels highcharts-xaxis-labels" ><text x="150.5769230769231" style="color:#000000;cursor:default;font-size:11px;fill:#000000;" text-anchor="middle" transform="translate(0,0)" y="350" opacity="1">1996</text><text x="209.73076923076925" style="color:#000000;cursor:default;font-size:11px;fill:#000000;" text-anchor="middle" transform="translate(0,0)" y="350" opacity="1">1997</text><text x="268.88461538461536" style="color:#000000;cursor:default;font-size:11px;fill:#000000;" text-anchor="middle" transform="translate(0,0)" y="350" opacity="1">1998</text><text x="328.03846153846155" style="color:#000000;cursor:default;font-size:11px;fill:#000000;" text-anchor="middle" transform="translate(0,0)" y="350" opacity="1">1999</text><text x="387.1923076923077" style="color:#000000;cursor:default;font-size:11px;fill:#000000;" text-anchor="middle" transform="translate(0,0)" y="350" opacity="1">2000</text><text x="446.34615384615387" style="color:#000000;cursor:default;font-size:11px;fill:#000000;" text-anchor="middle" transform="translate(0,0)" y="350" opacity="1">2001</text><text x="505.5" style="color:#000000;cursor:default;font-size:11px;fill:#000000;" text-anchor="middle" transform="translate(0,0)" y="350" opacity="1">2002</text><text x="564.6538461538462" style="color:#000000;cursor:default;font-size:11px;fill:#000000;" text-anchor="middle" transform="translate(0,0)" y="350" opacity="1">2003</text><text x="623.8076923076923" style="color:#000000;cursor:default;font-size:11px;fill:#000000;" text-anchor="middle" transform="translate(0,0)" y="350" opacity="1">2004</text><text x="682.9615384615385" style="color:#000000;cursor:default;font-size:11px;fill:#000000;" text-anchor="middle" transform="translate(0,0)" y="350" opacity="1">2005</text><text x="742.1153846153846" style="color:#000000;cursor:default;font-size:11px;fill:#000000;" text-anchor="middle" transform="translate(0,0)" y="350" opacity="1">2006</text><text x="801.2692307692307" style="color:#000000;cursor:default;font-size:11px;fill:#000000;" text-anchor="middle" transform="translate(0,0)" y="350" opacity="1">2007</text><text x="860.4230769230769" style="color:#000000;cursor:default;font-size:11px;fill:#000000;" text-anchor="middle" transform="translate(0,0)" y="350" opacity="1">2008</text></g><g class="highcharts-axis-labels highcharts-xaxis-labels" ><text x="150.5769230769231" style="color:#ba0f27;cursor:default;font-size:11px;fill:#ba0f27;" text-anchor="middle" transform="translate(0,0)" y="122" opacity="1">1996</text><text x="209.73076923076925" style="color:#ba0f27;cursor:default;font-size:11px;fill:#ba0f27;" text-anchor="middle" transform="translate(0,0)" y="122" opacity="1">1997</text><text x="268.88461538461536" style="color:#ba0f27;cursor:default;font-size:11px;fill:#ba0f27;" text-anchor="middle" transform="translate(0,0)" y="122" opacity="1">1998</text><text x="328.03846153846155" style="color:#ba0f27;cursor:default;font-size:11px;fill:#ba0f27;" text-anchor="middle" transform="translate(0,0)" y="122" opacity="1">1999</text><text x="387.1923076923077" style="color:#ba0f27;cursor:default;font-size:11px;fill:#ba0f27;" text-anchor="middle" transform="translate(0,0)" y="122" opacity="1">2000</text><text x="446.34615384615387" style="color:#ba0f27;cursor:default;font-size:11px;fill:#ba0f27;" text-anchor="middle" transform="translate(0,0)" y="122" opacity="1">2001</text><text x="505.5" style="color:#ba0f27;cursor:default;font-size:11px;fill:#ba0f27;" text-anchor="middle" transform="translate(0,0)" y="122" opacity="1">2002</text><text x="564.6538461538462" style="color:#ba0f27;cursor:default;font-size:11px;fill:#ba0f27;" text-anchor="middle" transform="translate(0,0)" y="122" opacity="1">2003</text><text x="623.8076923076923" style="color:#ba0f27;cursor:default;font-size:11px;fill:#ba0f27;" text-anchor="middle" transform="translate(0,0)" y="122" opacity="1">2004</text><text x="682.9615384615385" style="color:#ba0f27;cursor:default;font-size:11px;fill:#ba0f27;" text-anchor="middle" transform="translate(0,0)" y="122" opacity="1">2005</text><text x="742.1153846153846" style="color:#ba0f27;cursor:default;font-size:11px;fill:#ba0f27;" text-anchor="middle" transform="translate(0,0)" y="122" opacity="1">2006</text><text x="801.2692307692307" style="color:#ba0f27;cursor:default;font-size:11px;fill:#ba0f27;" text-anchor="middle" transform="translate(0,0)" y="122" opacity="1">2007</text><text x="860.4230769230769" style="color:#ba0f27;cursor:default;font-size:11px;fill:#ba0f27;" text-anchor="middle" transform="translate(0,0)" y="122" opacity="1">2008</text></g><g class="highcharts-axis-labels highcharts-yaxis-labels" ><text x="905" style="color:#000000;cursor:default;font-size:11px;fill:#000000;width:333px;text-overflow:clip;" text-anchor="start" transform="translate(0,0)" y="334" opacity="1"><tspan>40 million pounds</tspan></text><text x="905" style="color:#000000;cursor:default;font-size:11px;fill:#000000;width:333px;text-overflow:clip;" text-anchor="start" transform="translate(0,0)" y="269" opacity="1"><tspan>60 million pounds</tspan></text><text x="905" style="color:#000000;cursor:default;font-size:11px;fill:#000000;width:333px;text-overflow:clip;" text-anchor="start" transform="translate(0,0)" y="205" opacity="1"><tspan>80 million pounds</tspan></text><text x="905" style="color:#000000;cursor:default;font-size:11px;fill:#000000;width:333px;text-overflow:clip;" text-anchor="start" transform="translate(0,0)" y="140" opacity="1"><tspan>100 million pounds</tspan></text></g><g class="highcharts-axis-labels highcharts-yaxis-labels" ><text x="106" style="color:#ba0f27;cursor:default;font-size:11px;fill:#ba0f27;width:333px;text-overflow:clip;" text-anchor="end" transform="translate(0,0)" y="334" opacity="1"><tspan>800 degrees</tspan></text><text x="106" style="color:#ba0f27;cursor:default;font-size:11px;fill:#ba0f27;width:333px;text-overflow:clip;" text-anchor="end" transform="translate(0,0)" y="269" opacity="1"><tspan>1200 degrees</tspan></text><text x="106" style="color:#ba0f27;cursor:default;font-size:11px;fill:#ba0f27;width:333px;text-overflow:clip;" text-anchor="end" transform="translate(0,0)" y="205" opacity="1"><tspan>1600 degrees</tspan></text><text x="106" style="color:#ba0f27;cursor:default;font-size:11px;fill:#ba0f27;width:333px;text-overflow:clip;" text-anchor="end" transform="translate(0,0)" y="140" opacity="1"><tspan>2000 degrees</tspan></text></g><g class="highcharts-tooltip"  style="cursor:default;padding:0;white-space:nowrap;" transform="translate(0,-9999)"><path fill="none" d="M 3 0 L 13 0 C 16 0 16 0 16 3 L 16 13 C 16 16 16 16 13 16 L 3 16 C 0 16 0 16 0 13 L 0 3 C 0 0 0 0 3 0"  stroke="black" stroke-opacity="0.049999999999999996" stroke-width="5" transform="translate(1, 1)"></path><path fill="none" d="M 3 0 L 13 0 C 16 0 16 0 16 3 L 16 13 C 16 16 16 16 13 16 L 3 16 C 0 16 0 16 0 13 L 0 3 C 0 0 0 0 3 0"  stroke="black" stroke-opacity="0.09999999999999999" stroke-width="3" transform="translate(1, 1)"></path><path fill="none" d="M 3 0 L 13 0 C 16 0 16 0 16 3 L 16 13 C 16 16 16 16 13 16 L 3 16 C 0 16 0 16 0 13 L 0 3 C 0 0 0 0 3 0"  stroke="black" stroke-opacity="0.15" stroke-width="1" transform="translate(1, 1)"></path><path fill="rgb(249, 249, 249)" fill-opacity=" .85" d="M 3 0 L 13 0 C 16 0 16 0 16 3 L 16 13 C 16 16 16 16 13 16 L 3 16 C 0 16 0 16 0 13 L 0 3 C 0 0 0 0 3 0"></path><text x="8"  style="font-size:12px;color:#333333;fill:#333333;" transform="translate(0,20)"></text></g><text x="1030" text-anchor="end"  style="cursor:pointer;color:#909090;font-size:9px;fill:#909090;" y="405">tylervigen.com</text></svg>